<svg version="1.1" id="logo" xmlns="http://www.w3.org/2000/svg" x="0" y="0" viewBox="0 0 601.7 222.4" style="enable-background:new 0 0 601.7 222.4" xml:space="preserve" width="601.7" height="222.4"><style>.st0{fill:#274185}</style><path class="st0" d="M25.6 82c0-10.9 8.5-18.8 23.8-21.3l23.4-3.9v-3.7c0-8.9-6.6-14.3-15.9-14.3-7.9 0-14 3.6-18.2 9.5l-11-8.5c6.4-8.6 16.8-14 29.7-14 19.5 0 30.2 11.5 30.2 27.4v47.7H72.8v-8.2C67.6 98.9 58.6 103 49.7 103c-14.3 0-24.1-8.2-24.1-21zm26.8 8.9c9 0 16-4.3 20.3-11.2V67.3l-19.5 3.3c-9 1.6-12.8 5.4-12.8 10.9.1 5.5 4.6 9.4 12 9.4zM95.5 28.6h14.8v7c5.4-5.7 12.6-9.9 22.9-9.9 15.9 0 28.1 10.7 28.1 31.7v43.4h-14.9V58c0-11.5-6.3-18.3-16.6-18.3-9.9 0-15.8 6.2-19.5 12.5v48.7H95.5V28.6zM85.4 172l11.9 9.1c-6.8 9.1-17.6 15-31.3 15-24.8 0-40.4-18.3-40.4-39.9 0-21.6 15.6-39.9 40.4-39.9 13.5 0 24.5 5.9 31.3 15l-11.9 9.1c-4.1-5.7-10.9-9.8-19.4-9.8-14.2 0-24.5 11.2-24.5 25.7 0 14.7 10.3 25.7 24.7 25.7 8.3-.2 15-4.3 19.2-10zM120.6 134.3h-16V121h16v-18.1h14.9V121h25.8v13.3h-25.8v33.8c0 9.7 5.2 12.9 13.2 12.9 4.9 0 10.1-.6 12.7-1.6v13c-3.4 1.4-9.4 2.1-14.9 2.1-16.9 0-25.8-8.9-25.8-26.5v-33.7zM171.3 15.8v9.9h14.4V11.8c0-5-4.5-10.1-9.5-10.5h-14.9v13.8l10 .7z"/><path d="M171.3 206.3v-9.9h14.4v13.9c0 5-4.5 10.1-9.5 10.5h-14.9V207l10-.7z" style="fill:#ffcb05"/><path d="M15.6 206.3v-9.9H1.3v13.9c0 5 4.5 10.1 9.5 10.5h14.9V207l-10.1-.7z" style="fill:#5c72b7"/><path d="M15.6 15.8v9.9H1.3V11.8c0-5 4.5-10.1 9.5-10.5h14.9v13.8l-10.1.7z" style="fill:#008473"/><g><path class="st0" d="M234.9 68.6c0-2.6 2-4.4 5.6-5l5.7-.9v-1.2c0-2.4-1.7-3.7-4.1-3.7-2 0-3.5.9-4.6 2.4l-2.2-1.7c1.5-2 3.9-3.3 6.9-3.3 4.3 0 6.9 2.5 6.9 6.3v11.4h-2.9v-2.2c-1.3 1.7-3.5 2.6-5.7 2.6-3.3 0-5.6-1.8-5.6-4.7zM241 71c2.3 0 4.1-1.1 5.2-2.9v-3.3l-5 .8c-2.3.4-3.4 1.5-3.4 2.9S239 71 241 71zM261.5 71.6c-.8-.6-1.2-1.5-1.2-2.4 0-1.4.7-2.5 2-3.3-1.5-1.1-2.4-2.8-2.4-4.7 0-3.3 2.6-6 6.6-6 1.2 0 2.4.3 3.3.7h6.3v2.5h-3.7c.5.8.7 1.8.7 2.8 0 3.2-2.5 6-6.6 6-.8 0-1.7-.1-2.4-.3-.7.5-1.1 1.1-1.1 1.8s.4 1.2 1.4 1.2h4.9c4.5 0 6.6 2.2 6.6 5.2 0 3.6-3.6 6.2-8.7 6.2-5 0-8.3-2-8.3-5.4.1-1.7.9-3.1 2.6-4.3zm5.8 7.3c3.6 0 5.8-1.4 5.8-3.6 0-1.6-.9-2.9-3.9-2.9h-5.5c-1.2.9-1.9 1.9-1.9 3.2 0 2 2.1 3.3 5.5 3.3zm3.2-17.7c0-2.1-1.4-3.8-3.9-3.8s-3.9 1.7-3.9 3.8c0 2.1 1.4 3.7 3.9 3.7s3.9-1.7 3.9-3.7zM292.9 73.5c-5.7 0-9.3-4.2-9.3-9.2 0-5.2 3.3-9.2 8.6-9.2 4.6 0 7.6 3.2 7.6 7.4 0 .7-.1 1.3-.2 1.8h-13.1c.1 4.1 2.7 6.5 6.3 6.5 2.2 0 4-1 5.2-2.5l2.1 1.7c-1.5 2.2-4.1 3.5-7.2 3.5zm-6.2-11.3h10.2c-.1-2.5-1.8-4.6-4.8-4.6-2.8 0-4.8 1.6-5.4 4.6zM310.7 55.8h2.9v1.9c1.4-1.5 3.1-2.6 5.7-2.6 3.8 0 6.6 2.6 6.6 7.4v10.3H323V62.7c0-3-1.7-4.8-4.4-4.8-2.5 0-4 1.4-5.1 3.2v11.8h-2.9V55.8zM350.5 68.3l2.3 1.7c-1.6 2.1-4.1 3.5-7.2 3.5-5.6 0-9.2-4.2-9.2-9.2 0-5 3.6-9.2 9.2-9.2 3.1 0 5.6 1.4 7.2 3.5l-2.3 1.7c-1-1.5-2.8-2.5-4.9-2.5-3.6 0-6.2 2.9-6.2 6.5s2.6 6.5 6.3 6.5c2 0 3.7-1 4.8-2.5zM369.9 73.5c-5.7 0-9.3-4.2-9.3-9.2 0-5.2 3.3-9.2 8.6-9.2 4.6 0 7.6 3.2 7.6 7.4 0 .7-.1 1.3-.2 1.8h-13.1c.1 4.1 2.7 6.5 6.3 6.5 2.2 0 4-1 5.2-2.5l2.1 1.7c-1.5 2.2-4 3.5-7.2 3.5zm-6.1-11.3H374c-.1-2.5-1.8-4.6-4.8-4.6-2.9 0-4.8 1.6-5.4 4.6zM402.9 55.8h2.9v1.9c1.4-1.5 3.1-2.6 5.7-2.6 3.8 0 6.7 2.6 6.7 7.4v10.3h-2.9V62.7c0-3-1.7-4.8-4.4-4.8-2.5 0-4 1.4-5.1 3.2v11.8h-2.9V55.8zM429 68.6c0-2.6 2-4.4 5.6-5l5.7-.9v-1.2c0-2.4-1.7-3.7-4.1-3.7-2 0-3.5.9-4.6 2.4l-2.2-1.7c1.5-2 3.9-3.3 6.9-3.3 4.3 0 6.9 2.5 6.9 6.3v11.4h-2.9v-2.2c-1.3 1.7-3.5 2.6-5.7 2.6-3.3 0-5.6-1.8-5.6-4.7zm6.1 2.4c2.3 0 4.1-1.1 5.2-2.9v-3.3l-5 .8c-2.3.4-3.4 1.5-3.4 2.9s1.2 2.5 3.2 2.5zM456 58.4h-3.2v-2.6h3.2v-4.3h2.9v4.3h5.9v2.6h-5.9v8.7c0 2.7 1.4 3.4 3.4 3.4 1.1 0 1.9-.1 2.5-.4v2.6c-.8.3-1.7.5-2.9.5-3.8 0-5.9-1.9-5.9-6v-8.8zM474.7 49.4c0-1.1.9-2 2-2s2 .9 2 2-.9 2-2 2-2-.9-2-2zm.6 6.4h2.9v17h-2.9v-17zM507.3 64.3c0 5-3.7 9.2-9.2 9.2-5.5 0-9.2-4.2-9.2-9.2 0-5 3.7-9.2 9.2-9.2 5.4.1 9.2 4.3 9.2 9.2zm-3.1 0c0-3.5-2.6-6.5-6.1-6.5-3.6 0-6.2 2.9-6.2 6.5 0 3.5 2.6 6.5 6.2 6.5 3.5 0 6.1-2.9 6.1-6.5zM518 55.8h2.9v1.9c1.4-1.5 3.1-2.6 5.7-2.6 3.8 0 6.7 2.6 6.7 7.4v10.3h-2.9V62.7c0-3-1.7-4.8-4.4-4.8-2.5 0-4 1.4-5.1 3.2v11.8H518V55.8zM544 68.6c0-2.6 2-4.4 5.6-5l5.7-.9v-1.2c0-2.4-1.7-3.7-4.1-3.7-2 0-3.5.9-4.6 2.4l-2.2-1.7c1.5-2 3.9-3.3 6.9-3.3 4.3 0 6.9 2.5 6.9 6.3v11.4h-2.9v-2.2c-1.3 1.7-3.5 2.6-5.7 2.6-3.3 0-5.6-1.8-5.6-4.7zm6.1 2.4c2.3 0 4.1-1.1 5.2-2.9v-3.3l-5 .8c-2.3.4-3.4 1.5-3.4 2.9s1.2 2.5 3.2 2.5zM570 47.5h2.9v25.3H570V47.5zM592.9 73.5c-5.7 0-9.3-4.2-9.3-9.2 0-5.2 3.3-9.2 8.6-9.2 4.6 0 7.6 3.2 7.6 7.4 0 .7-.1 1.3-.2 1.8h-13.1c.1 4.1 2.7 6.5 6.3 6.5 2.2 0 4.1-1 5.2-2.5l2.1 1.7c-1.5 2.2-4 3.5-7.2 3.5zm-6.1-11.3H597c-.1-2.5-1.8-4.6-4.8-4.6-2.9 0-4.8 1.6-5.4 4.6zM243.2 97.3c2.5 0 4.5 1 6 2.7V89.7h2.9V115h-2.9v-2c-1.5 1.7-3.5 2.7-6 2.7-5.3 0-8.7-4.2-8.7-9.2-.1-4.9 3.4-9.2 8.7-9.2zm.3 15.7c2.4 0 4.5-1.1 5.7-3.1v-6.7c-1.3-2-3.4-3.1-5.7-3.1-3.6 0-6 2.9-6 6.5 0 3.5 2.4 6.4 6 6.4zM272 115.7c-5.7 0-9.3-4.2-9.3-9.2 0-5.2 3.3-9.2 8.6-9.2 4.6 0 7.6 3.2 7.6 7.4 0 .7-.1 1.3-.2 1.8h-13.1c.1 4.1 2.7 6.5 6.3 6.5 2.2 0 4.1-1 5.2-2.5l2.1 1.7c-1.5 2.2-4 3.5-7.2 3.5zm-6.1-11.3h10.2c-.1-2.5-1.8-4.6-4.8-4.6-2.8 0-4.8 1.6-5.4 4.6zM305.1 89.7h2.9V115h-2.9V89.7zM319.1 110.8c0-2.6 2-4.4 5.6-5l5.7-.9v-1.2c0-2.4-1.7-3.7-4.1-3.7-2 0-3.5.9-4.6 2.4l-2.2-1.7c1.5-2 3.9-3.3 6.9-3.3 4.3 0 6.9 2.5 6.9 6.3V115h-2.9v-2.2c-1.3 1.7-3.5 2.6-5.7 2.6-3.3.1-5.6-1.7-5.6-4.6zm6.1 2.3c2.3 0 4.1-1.1 5.2-2.9v-3.3l-5 .8c-2.3.4-3.4 1.5-3.4 2.9 0 1.5 1.2 2.5 3.2 2.5zM373 110.5l2.3 1.7c-1.6 2.1-4.1 3.5-7.2 3.5-5.6 0-9.2-4.2-9.2-9.2 0-5 3.6-9.2 9.2-9.2 3.1 0 5.6 1.4 7.2 3.5l-2.3 1.7c-1-1.5-2.8-2.5-4.9-2.5-3.6 0-6.2 2.9-6.2 6.5s2.6 6.5 6.3 6.5c2.1 0 3.8-1 4.8-2.5zM401.6 106.5c0 5-3.7 9.2-9.2 9.2-5.5 0-9.2-4.2-9.2-9.2 0-5 3.7-9.2 9.2-9.2 5.5 0 9.2 4.3 9.2 9.2zm-3 0c0-3.5-2.6-6.5-6.1-6.5-3.6 0-6.2 2.9-6.2 6.5 0 3.5 2.6 6.5 6.2 6.5 3.5 0 6.1-3 6.1-6.5zM412.3 89.7h2.9v10.2c1.4-1.5 3.1-2.6 5.7-2.6 3.8 0 6.6 2.6 6.6 7.4V115h-2.9v-10.2c0-3-1.7-4.8-4.4-4.8-2.5 0-4 1.5-5.1 3.2V115h-2.9V89.7zM447.2 115.7c-5.7 0-9.3-4.2-9.3-9.2 0-5.2 3.3-9.2 8.6-9.2 4.6 0 7.6 3.2 7.6 7.4 0 .7-.1 1.3-.2 1.8h-13.1c.1 4.1 2.7 6.5 6.3 6.5 2.2 0 4.1-1 5.2-2.5l2.1 1.7c-1.5 2.2-4 3.5-7.2 3.5zm-6.2-11.3h10.2c-.1-2.5-1.8-4.6-4.8-4.6-2.8 0-4.7 1.6-5.4 4.6zm4.2-9.1 3.5-5.6h3.2l-3.9 5.6h-2.8zM465.1 111c1.2 1.5 2.6 2.3 4.3 2.3 1.9 0 3-1.1 3-2.6 0-3.8-8.5-2.5-8.5-8.5 0-2.7 2.3-4.9 5.5-4.9 2.4 0 4.5 1.1 5.7 2.8l-2 1.7c-.9-1.3-2.2-2.1-3.7-2.1-1.8 0-2.8 1.1-2.8 2.4 0 3.8 8.5 2.6 8.5 8.4 0 3.2-2.6 5.2-5.7 5.2-2.7 0-4.8-1.1-6.4-3l2.1-1.7zM485.4 91.6c0-1.1.9-2 2-2s2 .9 2 2-.9 2-2 2-2-.9-2-2zm.5 6.4h2.9v17h-2.9V98zM517.9 106.5c0 5-3.7 9.2-9.2 9.2-5.5 0-9.2-4.2-9.2-9.2 0-5 3.7-9.2 9.2-9.2 5.5 0 9.2 4.3 9.2 9.2zm-3 0c0-3.5-2.6-6.5-6.1-6.5-3.6 0-6.2 2.9-6.2 6.5 0 3.5 2.6 6.5 6.2 6.5 3.5 0 6.1-3 6.1-6.5zM528.6 98h2.9v1.9c1.4-1.5 3.1-2.6 5.7-2.6 3.8 0 6.7 2.6 6.7 7.4V115H541v-10.2c0-3-1.7-4.8-4.4-4.8-2.5 0-4 1.4-5.1 3.2V115h-2.9V98zM243.2 139.5c2.5 0 4.5 1 6 2.7v-10.3h2.9v25.3h-2.9v-2c-1.5 1.7-3.5 2.7-6 2.7-5.3 0-8.7-4.2-8.7-9.2s3.4-9.2 8.7-9.2zm.3 15.7c2.4 0 4.5-1.1 5.7-3.1v-6.7c-1.3-2-3.4-3.1-5.7-3.1-3.6 0-6 2.9-6 6.5s2.4 6.4 6 6.4zM272 157.9c-5.7 0-9.3-4.2-9.3-9.2 0-5.2 3.3-9.2 8.6-9.2 4.6 0 7.6 3.2 7.6 7.4 0 .7-.1 1.3-.2 1.8h-13.1c.1 4.1 2.7 6.5 6.3 6.5 2.2 0 4.1-1 5.2-2.5l2.1 1.7c-1.5 2.2-4 3.5-7.2 3.5zm-6.1-11.3h10.2c-.1-2.5-1.8-4.6-4.8-4.6-2.8 0-4.8 1.6-5.4 4.6zM290 153.2c1.2 1.5 2.6 2.3 4.3 2.3 1.9 0 3-1.1 3-2.6 0-3.8-8.5-2.5-8.5-8.5 0-2.7 2.3-4.9 5.5-4.9 2.4 0 4.5 1.1 5.7 2.8l-2 1.7c-.9-1.3-2.2-2.1-3.7-2.1-1.8 0-2.8 1.1-2.8 2.4 0 3.8 8.5 2.6 8.5 8.4 0 3.2-2.6 5.2-5.7 5.2-2.7 0-4.8-1.1-6.4-3l2.1-1.7zM327 142.8h-3.2v-2.6h3.2V136h2.9v4.3h5.9v2.6h-5.9v8.7c0 2.7 1.4 3.4 3.4 3.4 1.1 0 1.9-.1 2.5-.4v2.6c-.8.3-1.7.5-2.9.5-3.8 0-5.9-1.9-5.9-6v-8.9zM353.7 157.9c-5.7 0-9.3-4.2-9.3-9.2 0-5.2 3.3-9.2 8.6-9.2 4.6 0 7.6 3.2 7.6 7.4 0 .7-.1 1.3-.2 1.8h-13.1c.1 4.1 2.7 6.5 6.3 6.5 2.2 0 4-1 5.2-2.5l2.1 1.7c-1.5 2.2-4 3.5-7.2 3.5zm-6.1-11.3h10.2c-.1-2.5-1.8-4.6-4.8-4.6-2.9 0-4.8 1.6-5.4 4.6zM371.6 140.2h2.9v2.1c1.2-1.5 2.8-2.5 5-2.5.5 0 1 .1 1.5.2v2.8c-.5-.1-1-.2-1.7-.2-2.2 0-3.7 1.1-4.7 2.9v11.7h-2.9v-17zM391.1 140.2h2.9v2.1c1.2-1.5 2.8-2.5 5-2.5.5 0 1 .1 1.5.2v2.8c-.5-.1-1-.2-1.7-.2-2.2 0-3.7 1.1-4.7 2.9v11.7h-2.9v-17zM410 133.8c0-1.1.9-2 2-2s2 .9 2 2-.9 2-2 2-2-.9-2-2zm.5 6.4h2.9v17h-2.9v-17zM426.5 142.8h-3.2v-2.6h3.2V136h2.9v4.3h5.9v2.6h-5.9v8.7c0 2.7 1.4 3.4 3.4 3.4 1.1 0 1.9-.1 2.5-.4v2.6c-.8.3-1.7.5-2.9.5-3.8 0-5.9-1.9-5.9-6v-8.9zM462.4 148.7c0 5-3.7 9.2-9.2 9.2-5.5 0-9.2-4.2-9.2-9.2s3.7-9.2 9.2-9.2c5.5 0 9.2 4.3 9.2 9.2zm-3 0c0-3.5-2.6-6.5-6.1-6.5-3.6 0-6.2 2.9-6.2 6.5s2.6 6.5 6.2 6.5c3.5 0 6.1-3 6.1-6.5zM472.6 133.8c0-1.1.9-2 2-2s2 .9 2 2-.9 2-2 2-2-.9-2-2zm.5 6.4h2.9v17h-2.9v-17zM488.2 140.2h2.9v2.1c1.2-1.5 2.8-2.5 5-2.5.5 0 1 .1 1.5.2v2.8c-.5-.1-1-.2-1.7-.2-2.2 0-3.7 1.1-4.7 2.9v11.7h-2.9v-17zM514.5 157.9c-5.7 0-9.3-4.2-9.3-9.2 0-5.2 3.3-9.2 8.6-9.2 4.6 0 7.6 3.2 7.6 7.4 0 .7-.1 1.3-.2 1.8h-13.1c.1 4.1 2.7 6.5 6.3 6.5 2.2 0 4-1 5.2-2.5l2.1 1.7c-1.5 2.2-4.1 3.5-7.2 3.5zm-6.2-11.3h10.2c-.1-2.5-1.8-4.6-4.8-4.6-2.8 0-4.8 1.6-5.4 4.6zM532.4 153.2c1.2 1.5 2.6 2.3 4.3 2.3 1.9 0 3-1.1 3-2.6 0-3.8-8.5-2.5-8.5-8.5 0-2.7 2.3-4.9 5.5-4.9 2.4 0 4.5 1.1 5.7 2.8l-2 1.7c-.9-1.3-2.2-2.1-3.7-2.1-1.8 0-2.8 1.1-2.8 2.4 0 3.8 8.5 2.6 8.5 8.4 0 3.2-2.6 5.2-5.7 5.2-2.7 0-4.8-1.1-6.4-3l2.1-1.7z"/></g></svg>
